<svg xmlns="http://www.w3.org/2000/svg" xmlns:xlink="http://www.w3.org/1999/xlink" viewBox="0,0,256,256" width="50px" height="50px"><g transform=""><g fill="none" fill-rule="nonzero" stroke="none" stroke-width="none" stroke-linecap="butt" stroke-linejoin="none" stroke-miterlimit="10" stroke-dasharray="" stroke-dashoffset="0" font-family="none" font-weight="none" font-size="none" text-anchor="none" style="mix-blend-mode: normal"><path transform="scale(5.12,5.12)" d="M40.59766,10c2.20313,0.5 4.10156,2.10156 4.5,4.30078c0.5,2.5 1,6.10156 1,10.60156c-0.09766,4.5 -0.59766,8.09766 -1,10.59766c-0.39844,2.30078 -2.29687,3.80078 -4.5,4.30078c-3.5,0.69922 -9.49609,1.19922 -16.09766,1.19922c-6.60156,0 -12.59766,-0.5 -16.10156,-1.19922c-2.19922,-0.5 -4.09766,-2.10156 -4.5,-4.30078c-0.5,-2.5 -0.89844,-6 -0.89844,-10.5c0,-4.5 0.40234,-8.10156 0.80078,-10.5c0.39844,-2.30078 2.30078,-3.80078 4.5,-4.30078c3.30078,-0.69922 9.5,-1.19922 16.10156,-1.19922c6.59766,0 12.69531,0.5 16.19531,1z" id="strokeMainSVG" fill="#ff0000" stroke="#ff0000" stroke-width="6" stroke-linejoin="round"></path><g transform="scale(5.12,5.12)" fill="#ffffff" stroke="none" stroke-width="1" stroke-linejoin="miter"><path d="M24.40234,9c-6.60156,0 -12.80078,0.5 -16.10156,1.19922c-2.19922,0.5 -4.10156,2 -4.5,4.30078c-0.39844,2.39844 -0.80078,6 -0.80078,10.5c0,4.5 0.39844,8 0.89844,10.5c0.40234,2.19922 2.30078,3.80078 4.5,4.30078c3.50391,0.69922 9.5,1.19922 16.10156,1.19922c6.60156,0 12.59766,-0.5 16.09766,-1.19922c2.20313,-0.5 4.10156,-2 4.5,-4.30078c0.40234,-2.5 0.90234,-6.09766 1,-10.59766c0,-4.5 -0.5,-8.10156 -1,-10.60156c-0.39844,-2.19922 -2.29687,-3.80078 -4.5,-4.30078c-3.5,-0.5 -9.59766,-1 -16.19531,-1zM24.40234,11c7.19922,0 12.99609,0.59766 15.79688,1.09766c1.5,0.40234 2.69922,1.40234 2.89844,2.70313c0.60156,3.19922 1,6.60156 1,10.10156c-0.09766,4.29688 -0.59766,7.79688 -1,10.29688c-0.29687,1.89844 -2.29687,2.5 -2.89844,2.70313c-3.60156,0.69922 -9.60156,1.19531 -15.60156,1.19531c-6,0 -12.09766,-0.39844 -15.59766,-1.19531c-1.5,-0.40234 -2.69922,-1.40234 -2.89844,-2.70312c-0.80078,-2.80078 -1.10156,-6.5 -1.10156,-10.19922c0,-4.60156 0.40234,-8 0.80078,-10.09766c0.30078,-1.90234 2.39844,-2.50391 2.89844,-2.70312c3.30078,-0.69922 9.40234,-1.19922 15.70313,-1.19922zM19,17v16l14,-8zM21,20.40234l8,4.59766l-8,4.59766z"></path></g></g></g></svg>